<svg width="154" height="29" viewBox="0 0 154 29" fill="none" xmlns="http://www.w3.org/2000/svg">
<path d="M-5.89788e-05 27.6776V1.49573H10.3295C12.3153 1.49573 14.007 1.87499 15.4048 2.63352C16.8025 3.38352 17.8678 4.42755 18.6008 5.76562C19.3423 7.09516 19.713 8.62926 19.713 10.3679C19.713 12.1065 19.338 13.6406 18.588 14.9702C17.838 16.2997 16.7514 17.3352 15.3281 18.0767C13.9133 18.8182 12.2002 19.1889 10.1889 19.1889H3.60505V14.7528H9.29398C10.3593 14.7528 11.2372 14.5696 11.9275 14.2031C12.6264 13.8281 13.1462 13.3125 13.4872 12.6562C13.8366 11.9915 14.0113 11.2287 14.0113 10.3679C14.0113 9.49857 13.8366 8.74005 13.4872 8.09232C13.1462 7.43607 12.6264 6.92897 11.9275 6.57102C11.2286 6.20454 10.3423 6.0213 9.26841 6.0213H5.53545V27.6776H-5.89788e-05ZM22.4863 27.6776V8.04119H27.7661V11.4673H27.9706C28.3286 10.2486 28.9294 9.32812 29.7732 8.70596C30.6169 8.07528 31.5885 7.75994 32.688 7.75994C32.9607 7.75994 33.2547 7.77698 33.5701 7.81107C33.8854 7.84516 34.1624 7.89204 34.401 7.9517V12.7841C34.1454 12.7074 33.7917 12.6392 33.34 12.5795C32.8882 12.5199 32.4749 12.4901 32.0999 12.4901C31.2988 12.4901 30.5829 12.6648 29.9522 13.0142C29.33 13.3551 28.8357 13.8324 28.4692 14.446C28.1113 15.0597 27.9323 15.767 27.9323 16.5682V27.6776H22.4863ZM44.4548 28.0611C42.469 28.0611 40.7517 27.6392 39.3028 26.7954C37.8625 25.9432 36.7503 24.7585 35.9662 23.2415C35.1821 21.7159 34.7901 19.9474 34.7901 17.9361C34.7901 15.9077 35.1821 14.1349 35.9662 12.6179C36.7503 11.0923 37.8625 9.90766 39.3028 9.06391C40.7517 8.21164 42.469 7.78551 44.4548 7.78551C46.4406 7.78551 48.1537 8.21164 49.594 9.06391C51.0429 9.90766 52.1594 11.0923 52.9435 12.6179C53.7276 14.1349 54.1196 15.9077 54.1196 17.9361C54.1196 19.9474 53.7276 21.7159 52.9435 23.2415C52.1594 24.7585 51.0429 25.9432 49.594 26.7954C48.1537 27.6392 46.4406 28.0611 44.4548 28.0611ZM44.4804 23.8423C45.3838 23.8423 46.1381 23.5866 46.7432 23.0753C47.3483 22.5554 47.8043 21.848 48.1111 20.9531C48.4264 20.0582 48.5841 19.0398 48.5841 17.8977C48.5841 16.7557 48.4264 15.7372 48.1111 14.8423C47.8043 13.9474 47.3483 13.2401 46.7432 12.7202C46.1381 12.2003 45.3838 11.9403 44.4804 11.9403C43.5685 11.9403 42.8014 12.2003 42.1793 12.7202C41.5656 13.2401 41.1011 13.9474 40.7858 14.8423C40.479 15.7372 40.3256 16.7557 40.3256 17.8977C40.3256 19.0398 40.479 20.0582 40.7858 20.9531C41.1011 21.848 41.5656 22.5554 42.1793 23.0753C42.8014 23.5866 43.5685 23.8423 44.4804 23.8423ZM67.5005 8.04119V12.1321H55.3811V8.04119H67.5005ZM58.1553 27.6776V6.62215C58.1553 5.19886 58.4323 4.01846 58.9863 3.08096C59.5488 2.14346 60.3158 1.44033 61.2874 0.971584C62.259 0.502834 63.3627 0.268459 64.5985 0.268459C65.4337 0.268459 66.1965 0.33238 66.8868 0.460222C67.5857 0.588062 68.1056 0.703119 68.4465 0.805392L67.4749 4.8963C67.2618 4.82812 66.9976 4.7642 66.6823 4.70454C66.3755 4.64488 66.0601 4.61505 65.7363 4.61505C64.9351 4.61505 64.3769 4.80255 64.0615 5.17755C63.7462 5.54403 63.5885 6.05965 63.5885 6.72443V27.6776H58.1553ZM70.1075 27.6776V8.04119H75.5535V27.6776H70.1075ZM72.8433 5.50994C72.0337 5.50994 71.339 5.24147 70.7595 4.70454C70.1885 4.15908 69.903 3.5071 69.903 2.74857C69.903 1.99857 70.1885 1.35511 70.7595 0.818176C71.339 0.272721 72.0337 -6.91414e-06 72.8433 -6.91414e-06C73.653 -6.91414e-06 74.3433 0.272721 74.9143 0.818176C75.4939 1.35511 75.7837 1.99857 75.7837 2.74857C75.7837 3.5071 75.4939 4.15908 74.9143 4.70454C74.3433 5.24147 73.653 5.50994 72.8433 5.50994ZM89.6407 8.04119V12.1321H77.8154V8.04119H89.6407ZM80.5001 3.33664H85.9461V21.6435C85.9461 22.1463 86.0228 22.5383 86.1762 22.8196C86.3296 23.0923 86.5427 23.2841 86.8154 23.3949C87.0967 23.5057 87.4205 23.5611 87.787 23.5611C88.0427 23.5611 88.2984 23.5398 88.5541 23.4972C88.8097 23.446 89.0058 23.4077 89.1421 23.3821L89.9987 27.4347C89.7259 27.5199 89.3424 27.6179 88.8481 27.7287C88.3538 27.848 87.7529 27.9204 87.0455 27.946C85.733 27.9972 84.5825 27.8224 83.5938 27.4219C82.6137 27.0213 81.8509 26.3991 81.3055 25.5554C80.76 24.7116 80.4916 23.6463 80.5001 22.3594V3.33664Z" fill="#344054"/>
<path d="M102.87 27.6776V1.49573H111.717C113.771 1.49573 115.45 1.86647 116.754 2.60795C118.066 3.3409 119.038 4.3338 119.669 5.58664C120.299 6.83948 120.615 8.23721 120.615 9.77982C120.615 11.3224 120.299 12.7244 119.669 13.9858C119.047 15.2472 118.084 16.2528 116.78 17.0028C115.476 17.7443 113.805 18.1151 111.768 18.1151H105.427V15.3026H111.666C113.072 15.3026 114.201 15.0597 115.054 14.5739C115.906 14.0881 116.524 13.4318 116.907 12.6051C117.299 11.7699 117.495 10.8281 117.495 9.77982C117.495 8.73153 117.299 7.79403 116.907 6.96732C116.524 6.14062 115.902 5.49289 115.041 5.02414C114.18 4.54687 113.038 4.30823 111.615 4.30823H106.041V27.6776H102.87ZM124.593 27.6776V8.04119H127.508V11.0071H127.712C128.07 10.0355 128.718 9.24715 129.655 8.64204C130.593 8.03692 131.65 7.73437 132.826 7.73437C133.047 7.73437 133.324 7.73863 133.657 7.74715C133.989 7.75568 134.241 7.76846 134.411 7.78551V10.8537C134.309 10.8281 134.074 10.7898 133.708 10.7386C133.35 10.679 132.971 10.6491 132.57 10.6491C131.616 10.6491 130.763 10.8494 130.013 11.25C129.272 11.642 128.684 12.1875 128.249 12.8864C127.823 13.5767 127.61 14.3651 127.61 15.2514V27.6776H124.593ZM144.647 28.0866C142.874 28.0866 141.319 27.6648 139.981 26.821C138.651 25.9773 137.612 24.7969 136.862 23.2798C136.12 21.7628 135.749 19.9901 135.749 17.9616C135.749 15.9162 136.12 14.1307 136.862 12.6051C137.612 11.0795 138.651 9.89488 139.981 9.05113C141.319 8.20738 142.874 7.78551 144.647 7.78551C146.42 7.78551 147.971 8.20738 149.3 9.05113C150.639 9.89488 151.678 11.0795 152.42 12.6051C153.17 14.1307 153.545 15.9162 153.545 17.9616C153.545 19.9901 153.17 21.7628 152.42 23.2798C151.678 24.7969 150.639 25.9773 149.3 26.821C147.971 27.6648 146.42 28.0866 144.647 28.0866ZM144.647 25.3764C145.994 25.3764 147.102 25.0312 147.971 24.3409C148.84 23.6506 149.484 22.7429 149.901 21.6179C150.319 20.4929 150.528 19.2741 150.528 17.9616C150.528 16.6491 150.319 15.4261 149.901 14.2926C149.484 13.1591 148.84 12.2429 147.971 11.544C147.102 10.8452 145.994 10.4957 144.647 10.4957C143.3 10.4957 142.193 10.8452 141.323 11.544C140.454 12.2429 139.81 13.1591 139.393 14.2926C138.975 15.4261 138.766 16.6491 138.766 17.9616C138.766 19.2741 138.975 20.4929 139.393 21.6179C139.81 22.7429 140.454 23.6506 141.323 24.3409C142.193 25.0312 143.3 25.3764 144.647 25.3764Z" fill="#079455"/>
</svg>
