<svg width="18" height="18" viewBox="0 0 18 18" fill="none" xmlns="http://www.w3.org/2000/svg">
<rect x="13.5" y="6.75" width="3" height="3" rx="1.5" transform="rotate(90 13.5 6.75)" stroke="#475467" stroke-width="2"/>
<rect x="13.5" y="12.75" width="3" height="3" rx="1.5" transform="rotate(90 13.5 12.75)" stroke="#475467" stroke-width="2"/>
<rect x="2.25" y="5.25" width="3" height="3" rx="1.5" transform="rotate(-90 2.25 5.25)" stroke="#475467" stroke-width="2"/>
<path d="M3.75 6V10.25C3.75 12.1356 3.75 13.0784 4.33579 13.6642C4.92157 14.25 5.86438 14.25 7.75 14.25H10.5" stroke="#475467" stroke-width="2"/>
<path d="M3.75 5.25C3.75 6.18188 3.75 6.64782 3.90224 7.01537C4.10523 7.50542 4.49458 7.89477 4.98463 8.09776C5.35218 8.25 5.81812 8.25 6.75 8.25H10.5" stroke="#475467" stroke-width="2"/>
</svg>
