<svg width="14" height="16" viewBox="0 0 14 16" fill="none" xmlns="http://www.w3.org/2000/svg">
<path d="M13.0001 14.5C13.0001 13.4533 13.0001 12.93 12.8709 12.5041C12.5801 11.5453 11.8298 10.795 10.871 10.5042C10.4451 10.375 9.92179 10.375 8.87512 10.375H5.12513C4.07845 10.375 3.55511 10.375 3.12927 10.5042C2.17046 10.795 1.42015 11.5453 1.1293 12.5041C1.00012 12.93 1.00012 13.4533 1.00012 14.5M10.3751 4.375C10.3751 6.23896 8.86408 7.75 7.00012 7.75C5.13616 7.75 3.62512 6.23896 3.62512 4.375C3.62512 2.51104 5.13616 1 7.00012 1C8.86408 1 10.3751 2.51104 10.3751 4.375Z" stroke="#475467" stroke-width="2" stroke-linecap="round" stroke-linejoin="round"/>
</svg>
